<svg width="300" height="300" viewBox="0 0 300 300" fill="none" xmlns="http://www.w3.org/2000/svg">
<rect width="246" height="248" fill="black"/>
<rect x="54" y="52" width="246" height="248" fill="black"/>
<rect width="300" height="300" rx="52" fill="black"/>
<path d="M59.875 87.9375H67.375V134H59.875V87.9375ZM73.125 87.9375C75.0833 87.9375 77.0208 88.25 78.9375 88.875C80.8542 89.5 82.5625 90.4375 84.0625 91.6875C85.6042 92.9375 86.8333 94.4583 87.75 96.25C88.7083 98 89.1875 99.9792 89.1875 102.188C89.1875 104.521 88.7917 106.646 88 108.562C87.2083 110.438 86.1042 112.021 84.6875 113.312C83.2708 114.604 81.5625 115.604 79.5625 116.312C77.5625 117.021 75.3542 117.375 72.9375 117.375H69.9375V111.875H74.25C75.1667 111.875 76.0625 111.729 76.9375 111.438C77.8542 111.104 78.6875 110.583 79.4375 109.875C80.1875 109.167 80.7917 108.188 81.25 106.938C81.7083 105.646 81.9375 104.062 81.9375 102.188C81.9375 101.438 81.8333 100.583 81.625 99.625C81.4167 98.625 80.9792 97.6875 80.3125 96.8125C79.6875 95.8958 78.7917 95.1458 77.625 94.5625C76.4583 93.9375 74.9167 93.625 73 93.625H69.9375V87.9375H73.125ZM97.625 87.9375H105.125V134H97.625V87.9375ZM128.875 134H120.938L112.25 117.312C112.125 117.312 111.979 117.333 111.812 117.375C111.688 117.375 111.479 117.375 111.188 117.375C110.896 117.375 110.458 117.375 109.875 117.375C109.333 117.375 108.604 117.375 107.688 117.375V111.875H111.938C112.854 111.875 113.771 111.729 114.688 111.438C115.604 111.104 116.438 110.583 117.188 109.875C117.938 109.167 118.542 108.188 119 106.938C119.458 105.646 119.688 104.062 119.688 102.188C119.688 101.438 119.583 100.583 119.375 99.625C119.167 98.625 118.729 97.6875 118.062 96.8125C117.438 95.8958 116.542 95.1458 115.375 94.5625C114.208 93.9375 112.667 93.625 110.75 93.625H107.688V87.9375H110.875C112.833 87.9375 114.771 88.25 116.688 88.875C118.604 89.5 120.312 90.4375 121.812 91.6875C123.354 92.9375 124.583 94.4583 125.5 96.25C126.458 98 126.938 99.9792 126.938 102.188C126.938 105.521 126.167 108.354 124.625 110.688C123.083 113.021 121 114.75 118.375 115.875L128.875 134ZM146.75 134H139.125V87.9375H146.75V134ZM158.25 87.9375H165.875L178.25 116.375V127.938H176.25L165.875 102.312V134H158.25V87.9375ZM193.188 87.9375H200.812V134H193.188V102.312L182.875 127.938H180.812V116.5L193.188 87.9375ZM212.5 87.9375H220.125V134H212.5V87.9375ZM239.375 113.25H222.688V108.125H239.375V113.25ZM222.688 128.312H241.312V134H222.688V128.312ZM241.312 87.9375V93.625H222.688V87.9375H241.312ZM41.8438 191.75C42.8021 191.875 43.8229 192.188 44.9062 192.688C45.9896 193.188 46.9896 193.896 47.9062 194.812C48.8646 195.729 49.6562 196.854 50.2812 198.188C50.9062 199.479 51.2188 200.979 51.2188 202.688C51.2188 204.771 50.9062 206.562 50.2812 208.062C49.6562 209.562 48.8646 210.812 47.9062 211.812C46.9896 212.771 45.9688 213.542 44.8438 214.125C43.7604 214.667 42.6979 215.083 41.6562 215.375C40.6562 215.667 39.7604 215.854 38.9688 215.938C38.1771 215.979 37.6562 216 37.4062 216H30.1562V210.5H36.9688C39.1771 210.5 40.9062 209.792 42.1562 208.375C43.4062 206.958 44.0312 205.062 44.0312 202.688C44.0312 200.438 43.3854 198.542 42.0938 197C40.8021 195.458 38.9062 194.688 36.4062 194.688H30.1562V189.625H33.1562C34.0729 189.625 35.0104 189.604 35.9688 189.562C36.9271 189.521 37.8229 189.292 38.6562 188.875C39.4896 188.458 40.1562 187.75 40.6562 186.75C41.1979 185.75 41.4688 184.312 41.4688 182.438C41.4688 181.688 41.3646 180.917 41.1562 180.125C40.9479 179.292 40.5312 178.542 39.9062 177.875C39.2812 177.208 38.3854 176.667 37.2188 176.25C36.0521 175.833 34.5104 175.625 32.5938 175.625H30.1562V169.938H33.3438C35.3021 169.938 37.1979 170.167 39.0312 170.625C40.8646 171.083 42.4896 171.812 43.9062 172.812C45.3229 173.812 46.4479 175.125 47.2812 176.75C48.1146 178.333 48.5312 180.229 48.5312 182.438C48.5312 183.729 48.3229 184.917 47.9062 186C47.4896 187.042 46.9688 187.958 46.3438 188.75C45.7188 189.542 44.9896 190.208 44.1562 190.75C43.3646 191.25 42.5938 191.583 41.8438 191.75ZM20.0938 169.938H27.5938V216H20.0938V169.938ZM61.9688 169.938H69.5938V216H61.9688V169.938ZM88.8438 195.25H72.1562V190.125H88.8438V195.25ZM72.1562 210.312H90.7812V216H72.1562V210.312ZM90.7812 169.938V175.625H72.1562V169.938H90.7812ZM123.031 191.75C123.99 191.875 125.01 192.188 126.094 192.688C127.177 193.188 128.177 193.896 129.094 194.812C130.052 195.729 130.844 196.854 131.469 198.188C132.094 199.479 132.406 200.979 132.406 202.688C132.406 204.771 132.094 206.562 131.469 208.062C130.844 209.562 130.052 210.812 129.094 211.812C128.177 212.771 127.156 213.542 126.031 214.125C124.948 214.667 123.885 215.083 122.844 215.375C121.844 215.667 120.948 215.854 120.156 215.938C119.365 215.979 118.844 216 118.594 216H111.344V210.5H118.156C120.365 210.5 122.094 209.792 123.344 208.375C124.594 206.958 125.219 205.062 125.219 202.688C125.219 200.438 124.573 198.542 123.281 197C121.99 195.458 120.094 194.688 117.594 194.688H111.344V189.625H114.344C115.26 189.625 116.198 189.604 117.156 189.562C118.115 189.521 119.01 189.292 119.844 188.875C120.677 188.458 121.344 187.75 121.844 186.75C122.385 185.75 122.656 184.312 122.656 182.438C122.656 181.688 122.552 180.917 122.344 180.125C122.135 179.292 121.719 178.542 121.094 177.875C120.469 177.208 119.573 176.667 118.406 176.25C117.24 175.833 115.698 175.625 113.781 175.625H111.344V169.938H114.531C116.49 169.938 118.385 170.167 120.219 170.625C122.052 171.083 123.677 171.812 125.094 172.812C126.51 173.812 127.635 175.125 128.469 176.75C129.302 178.333 129.719 180.229 129.719 182.438C129.719 183.729 129.51 184.917 129.094 186C128.677 187.042 128.156 187.958 127.531 188.75C126.906 189.542 126.177 190.208 125.344 190.75C124.552 191.25 123.781 191.583 123.031 191.75ZM101.281 169.938H108.781V216H101.281V169.938ZM150.719 216H143.094V169.938H150.719V216ZM162.469 169.938H169.969V216H162.469V169.938ZM176.344 169.938C180.219 169.938 183.615 170.562 186.531 171.812C189.49 173.021 191.927 174.646 193.844 176.688C195.802 178.729 197.26 181.062 198.219 183.688C199.177 186.271 199.656 188.938 199.656 191.688C199.656 195.479 199.24 198.729 198.406 201.438C197.615 204.104 196.594 206.354 195.344 208.188C194.094 209.979 192.677 211.396 191.094 212.438C189.552 213.479 188.052 214.271 186.594 214.812C185.135 215.312 183.802 215.646 182.594 215.812C181.385 215.938 180.49 216 179.906 216H172.531V210.5H177.406C182.49 210.5 186.156 208.875 188.406 205.625C190.656 202.375 191.781 197.667 191.781 191.5C191.781 189.583 191.552 187.688 191.094 185.812C190.635 183.938 189.74 182.25 188.406 180.75C187.115 179.208 185.344 177.979 183.094 177.062C180.844 176.104 177.927 175.625 174.344 175.625H172.531V169.938H176.344ZM248.094 216H240.344L228.406 181.5L216.344 216H208.531L224.656 170H232.094L248.094 216ZM232.531 201.375L234.344 206.438H222.406L224.156 201.375H232.531ZM278.969 177.062C278.76 176.979 278.51 176.833 278.219 176.625C277.927 176.417 277.51 176.229 276.969 176.062C276.427 175.854 275.74 175.688 274.906 175.562C274.073 175.438 273.01 175.417 271.719 175.5V169.188C273.552 169.229 275.406 169.438 277.281 169.812C279.198 170.146 280.74 170.688 281.906 171.438C281.656 171.979 281.365 172.583 281.031 173.25C280.698 173.875 280.385 174.479 280.094 175.062C279.802 175.604 279.552 176.062 279.344 176.438C279.135 176.812 279.01 177.021 278.969 177.062ZM257.406 182.062C257.406 180.229 257.719 178.583 258.344 177.125C258.969 175.667 259.802 174.396 260.844 173.312C261.927 172.188 263.177 171.312 264.594 170.688C266.052 170.021 267.573 169.583 269.156 169.375V175.938C267.823 176.396 266.719 177.208 265.844 178.375C264.969 179.5 264.531 180.646 264.531 181.812C264.531 183.438 264.969 184.75 265.844 185.75C266.719 186.75 267.823 187.625 269.156 188.375V195.5C267.781 194.833 266.406 194.125 265.031 193.375C263.656 192.583 262.406 191.667 261.281 190.625C260.156 189.583 259.219 188.375 258.469 187C257.76 185.625 257.406 183.979 257.406 182.062ZM258.406 207.562C258.99 207.896 259.719 208.229 260.594 208.562C261.51 208.854 262.448 209.146 263.406 209.438C264.365 209.688 265.323 209.896 266.281 210.062C267.24 210.229 268.135 210.312 268.969 210.312H269.156V216.25H269.031C268.031 216.25 266.99 216.188 265.906 216.062C264.865 215.979 263.802 215.812 262.719 215.562C261.635 215.312 260.594 214.979 259.594 214.562C258.635 214.104 257.802 213.562 257.094 212.938L258.406 207.562ZM271.719 189.625C273.094 190.25 274.49 190.917 275.906 191.625C277.365 192.333 278.677 193.208 279.844 194.25C281.01 195.25 281.969 196.479 282.719 197.938C283.469 199.396 283.844 201.208 283.844 203.375C283.844 204.875 283.552 206.333 282.969 207.75C282.427 209.167 281.635 210.458 280.594 211.625C279.594 212.75 278.344 213.708 276.844 214.5C275.344 215.292 273.635 215.812 271.719 216.062V210.062C275.135 209.229 276.844 206.958 276.844 203.25C276.844 201.792 276.365 200.583 275.406 199.625C274.448 198.667 273.219 197.771 271.719 196.938V189.625Z" fill="white"/>
</svg>
