<svg width="474" height="48" viewBox="0 0 474 48" fill="none" xmlns="http://www.w3.org/2000/svg">
<path d="M0.6875 0.9375H8.1875V47H0.6875V0.9375ZM13.9375 0.9375C15.8958 0.9375 17.8333 1.25 19.75 1.875C21.6667 2.5 23.375 3.4375 24.875 4.6875C26.4167 5.9375 27.6458 7.45833 28.5625 9.25C29.5208 11 30 12.9792 30 15.1875C30 17.5208 29.6042 19.6458 28.8125 21.5625C28.0208 23.4375 26.9167 25.0208 25.5 26.3125C24.0833 27.6042 22.375 28.6042 20.375 29.3125C18.375 30.0208 16.1667 30.375 13.75 30.375H10.75V24.875H15.0625C15.9792 24.875 16.875 24.7292 17.75 24.4375C18.6667 24.1042 19.5 23.5833 20.25 22.875C21 22.1667 21.6042 21.1875 22.0625 19.9375C22.5208 18.6458 22.75 17.0625 22.75 15.1875C22.75 14.4375 22.6458 13.5833 22.4375 12.625C22.2292 11.625 21.7917 10.6875 21.125 9.8125C20.5 8.89583 19.6042 8.14583 18.4375 7.5625C17.2708 6.9375 15.7292 6.625 13.8125 6.625H10.75V0.9375H13.9375ZM38.4375 0.9375H45.9375V47H38.4375V0.9375ZM69.6875 47H61.75L53.0625 30.3125C52.9375 30.3125 52.7917 30.3333 52.625 30.375C52.5 30.375 52.2917 30.375 52 30.375C51.7083 30.375 51.2708 30.375 50.6875 30.375C50.1458 30.375 49.4167 30.375 48.5 30.375V24.875H52.75C53.6667 24.875 54.5833 24.7292 55.5 24.4375C56.4167 24.1042 57.25 23.5833 58 22.875C58.75 22.1667 59.3542 21.1875 59.8125 19.9375C60.2708 18.6458 60.5 17.0625 60.5 15.1875C60.5 14.4375 60.3958 13.5833 60.1875 12.625C59.9792 11.625 59.5417 10.6875 58.875 9.8125C58.25 8.89583 57.3542 8.14583 56.1875 7.5625C55.0208 6.9375 53.4792 6.625 51.5625 6.625H48.5V0.9375H51.6875C53.6458 0.9375 55.5833 1.25 57.5 1.875C59.4167 2.5 61.125 3.4375 62.625 4.6875C64.1667 5.9375 65.3958 7.45833 66.3125 9.25C67.2708 11 67.75 12.9792 67.75 15.1875C67.75 18.5208 66.9792 21.3542 65.4375 23.6875C63.8958 26.0208 61.8125 27.75 59.1875 28.875L69.6875 47ZM87.5625 47H79.9375V0.9375H87.5625V47ZM99.0625 0.9375H106.688L119.062 29.375V40.9375H117.062L106.688 15.3125V47H99.0625V0.9375ZM134 0.9375H141.625V47H134V15.3125L123.688 40.9375H121.625V29.5L134 0.9375ZM153.312 0.9375H160.938V47H153.312V0.9375ZM180.188 26.25H163.5V21.125H180.188V26.25ZM163.5 41.3125H182.125V47H163.5V41.3125ZM182.125 0.9375V6.625H163.5V0.9375H182.125ZM231.5 22.75C232.458 22.875 233.479 23.1875 234.562 23.6875C235.646 24.1875 236.646 24.8958 237.562 25.8125C238.521 26.7292 239.312 27.8542 239.938 29.1875C240.562 30.4792 240.875 31.9792 240.875 33.6875C240.875 35.7708 240.562 37.5625 239.938 39.0625C239.312 40.5625 238.521 41.8125 237.562 42.8125C236.646 43.7708 235.625 44.5417 234.5 45.125C233.417 45.6667 232.354 46.0833 231.312 46.375C230.312 46.6667 229.417 46.8542 228.625 46.9375C227.833 46.9792 227.312 47 227.062 47H219.812V41.5H226.625C228.833 41.5 230.562 40.7917 231.812 39.375C233.062 37.9583 233.688 36.0625 233.688 33.6875C233.688 31.4375 233.042 29.5417 231.75 28C230.458 26.4583 228.562 25.6875 226.062 25.6875H219.812V20.625H222.812C223.729 20.625 224.667 20.6042 225.625 20.5625C226.583 20.5208 227.479 20.2917 228.312 19.875C229.146 19.4583 229.812 18.75 230.312 17.75C230.854 16.75 231.125 15.3125 231.125 13.4375C231.125 12.6875 231.021 11.9167 230.812 11.125C230.604 10.2917 230.188 9.54167 229.562 8.875C228.938 8.20833 228.042 7.66667 226.875 7.25C225.708 6.83333 224.167 6.625 222.25 6.625H219.812V0.9375H223C224.958 0.9375 226.854 1.16667 228.688 1.625C230.521 2.08333 232.146 2.8125 233.562 3.8125C234.979 4.8125 236.104 6.125 236.938 7.75C237.771 9.33333 238.188 11.2292 238.188 13.4375C238.188 14.7292 237.979 15.9167 237.562 17C237.146 18.0417 236.625 18.9583 236 19.75C235.375 20.5417 234.646 21.2083 233.812 21.75C233.021 22.25 232.25 22.5833 231.5 22.75ZM209.75 0.9375H217.25V47H209.75V0.9375ZM251.625 0.9375H259.25V47H251.625V0.9375ZM278.5 26.25H261.812V21.125H278.5V26.25ZM261.812 41.3125H280.438V47H261.812V41.3125ZM280.438 0.9375V6.625H261.812V0.9375H280.438ZM312.688 22.75C313.646 22.875 314.667 23.1875 315.75 23.6875C316.833 24.1875 317.833 24.8958 318.75 25.8125C319.708 26.7292 320.5 27.8542 321.125 29.1875C321.75 30.4792 322.062 31.9792 322.062 33.6875C322.062 35.7708 321.75 37.5625 321.125 39.0625C320.5 40.5625 319.708 41.8125 318.75 42.8125C317.833 43.7708 316.812 44.5417 315.688 45.125C314.604 45.6667 313.542 46.0833 312.5 46.375C311.5 46.6667 310.604 46.8542 309.812 46.9375C309.021 46.9792 308.5 47 308.25 47H301V41.5H307.812C310.021 41.5 311.75 40.7917 313 39.375C314.25 37.9583 314.875 36.0625 314.875 33.6875C314.875 31.4375 314.229 29.5417 312.938 28C311.646 26.4583 309.75 25.6875 307.25 25.6875H301V20.625H304C304.917 20.625 305.854 20.6042 306.812 20.5625C307.771 20.5208 308.667 20.2917 309.5 19.875C310.333 19.4583 311 18.75 311.5 17.75C312.042 16.75 312.312 15.3125 312.312 13.4375C312.312 12.6875 312.208 11.9167 312 11.125C311.792 10.2917 311.375 9.54167 310.75 8.875C310.125 8.20833 309.229 7.66667 308.062 7.25C306.896 6.83333 305.354 6.625 303.438 6.625H301V0.9375H304.188C306.146 0.9375 308.042 1.16667 309.875 1.625C311.708 2.08333 313.333 2.8125 314.75 3.8125C316.167 4.8125 317.292 6.125 318.125 7.75C318.958 9.33333 319.375 11.2292 319.375 13.4375C319.375 14.7292 319.167 15.9167 318.75 17C318.333 18.0417 317.812 18.9583 317.188 19.75C316.562 20.5417 315.833 21.2083 315 21.75C314.208 22.25 313.438 22.5833 312.688 22.75ZM290.938 0.9375H298.438V47H290.938V0.9375ZM340.375 47H332.75V0.9375H340.375V47ZM352.125 0.9375H359.625V47H352.125V0.9375ZM366 0.9375C369.875 0.9375 373.271 1.5625 376.188 2.8125C379.146 4.02083 381.583 5.64583 383.5 7.6875C385.458 9.72917 386.917 12.0625 387.875 14.6875C388.833 17.2708 389.312 19.9375 389.312 22.6875C389.312 26.4792 388.896 29.7292 388.062 32.4375C387.271 35.1042 386.25 37.3542 385 39.1875C383.75 40.9792 382.333 42.3958 380.75 43.4375C379.208 44.4792 377.708 45.2708 376.25 45.8125C374.792 46.3125 373.458 46.6458 372.25 46.8125C371.042 46.9375 370.146 47 369.562 47H362.188V41.5H367.062C372.146 41.5 375.812 39.875 378.062 36.625C380.312 33.375 381.438 28.6667 381.438 22.5C381.438 20.5833 381.208 18.6875 380.75 16.8125C380.292 14.9375 379.396 13.25 378.062 11.75C376.771 10.2083 375 8.97917 372.75 8.0625C370.5 7.10417 367.583 6.625 364 6.625H362.188V0.9375H366ZM437.75 47H430L418.062 12.5L406 47H398.188L414.312 1H421.75L437.75 47ZM422.188 32.375L424 37.4375H412.062L413.812 32.375H422.188ZM468.625 8.0625C468.417 7.97917 468.167 7.83333 467.875 7.625C467.583 7.41667 467.167 7.22917 466.625 7.0625C466.083 6.85417 465.396 6.6875 464.562 6.5625C463.729 6.4375 462.667 6.41667 461.375 6.5V0.1875C463.208 0.229167 465.062 0.4375 466.938 0.8125C468.854 1.14583 470.396 1.6875 471.562 2.4375C471.312 2.97917 471.021 3.58333 470.688 4.25C470.354 4.875 470.042 5.47917 469.75 6.0625C469.458 6.60417 469.208 7.0625 469 7.4375C468.792 7.8125 468.667 8.02083 468.625 8.0625ZM447.062 13.0625C447.062 11.2292 447.375 9.58333 448 8.125C448.625 6.66667 449.458 5.39583 450.5 4.3125C451.583 3.1875 452.833 2.3125 454.25 1.6875C455.708 1.02083 457.229 0.583333 458.812 0.375V6.9375C457.479 7.39583 456.375 8.20833 455.5 9.375C454.625 10.5 454.188 11.6458 454.188 12.8125C454.188 14.4375 454.625 15.75 455.5 16.75C456.375 17.75 457.479 18.625 458.812 19.375V26.5C457.438 25.8333 456.062 25.125 454.688 24.375C453.312 23.5833 452.062 22.6667 450.938 21.625C449.812 20.5833 448.875 19.375 448.125 18C447.417 16.625 447.062 14.9792 447.062 13.0625ZM448.062 38.5625C448.646 38.8958 449.375 39.2292 450.25 39.5625C451.167 39.8542 452.104 40.1458 453.062 40.4375C454.021 40.6875 454.979 40.8958 455.938 41.0625C456.896 41.2292 457.792 41.3125 458.625 41.3125H458.812V47.25H458.688C457.688 47.25 456.646 47.1875 455.562 47.0625C454.521 46.9792 453.458 46.8125 452.375 46.5625C451.292 46.3125 450.25 45.9792 449.25 45.5625C448.292 45.1042 447.458 44.5625 446.75 43.9375L448.062 38.5625ZM461.375 20.625C462.75 21.25 464.146 21.9167 465.562 22.625C467.021 23.3333 468.333 24.2083 469.5 25.25C470.667 26.25 471.625 27.4792 472.375 28.9375C473.125 30.3958 473.5 32.2083 473.5 34.375C473.5 35.875 473.208 37.3333 472.625 38.75C472.083 40.1667 471.292 41.4583 470.25 42.625C469.25 43.75 468 44.7083 466.5 45.5C465 46.2917 463.292 46.8125 461.375 47.0625V41.0625C464.792 40.2292 466.5 37.9583 466.5 34.25C466.5 32.7917 466.021 31.5833 465.062 30.625C464.104 29.6667 462.875 28.7708 461.375 27.9375V20.625Z" fill="black"/>
</svg>
